PathFileType	4	(X/Y/Z)	pose_F01_0-97.trc
DataRate	CameraRate	NumFrames	NumMarkers	Units	OrigDataRate	OrigDataStartFrame	OrigNumFrames
60	60	6	21	m	60	36	97
Frame#	Time	CHip			RHip			RKnee			RAnkle			RBigToe			RSmallToe			RHeel			LHip			LKnee			LAnkle			LBigToe			LSmallToe			LHeel			Neck			Nose			RShoulder			RElbow			RWrist			LShoulder			LElbow			LWrist			
		X1	Y1	Z1	X2	Y2	Z2	X3	Y3	Z3	X4	Y4	Z4	X5	Y5	Z5	X6	Y6	Z6	X7	Y7	Z7	X8	Y8	Z8	X9	Y9	Z9	X10	Y10	Z10	X11	Y11	Z11	X12	Y12	Z12	X13	Y13	Z13	X14	Y14	Z14	X15	Y15	Z15	X16	Y16	Z16	X17	Y17	Z17	X18	Y18	Z18	X19	Y19	Z19	X20	Y20	Z20	X21	Y21	Z21	
36	0.6	-0.3214704921827121	1.8250414371358732	-0.6929026104988679	-0.3369874553642114	1.823225596932658	-0.6318616999965757	-0.33240614639427296	1.6944837505376975	-0.6011571944232098	-0.2961216136863159	1.5507345954383782	-0.511509098078309	-0.28367235936083984	1.5291750024250224	-0.5409444730114613	-0.2979931215703163	1.5508729093962335	-0.5145011337295915	-0.4819780887658177	1.5393766824115518	-0.9668033884165393	-0.30751139261967564	1.8309119933610034	-0.7514181705113717	-0.29709382938735146	1.697474213975116	-0.6916262173982425	-0.24947342236511336	1.5384958399866855	-0.5240607035241428	-0.35152076211316163	1.514110300416362	-1.048180050711928	-0.34676915498643635	1.523902071143449	-1.0344293003277045	-0.4048451767261316	1.5387190570213976	-0.9912069379363051	-0.3208810449297343	1.9829272666202378	-0.7113216808584719	-0.2831013265107626	2.0377755736826857	-0.6683605667427215	-0.3374720056279053	1.9764542445113527	-0.6371007383459405	-0.354325710615395	1.8949117567703075	-0.6003693584236637	-0.3309744507926946	1.840340102141539	-0.5390610624438815	-0.3032869424581318	1.9864393184590552	-0.7876253541512526	-0.30024033943727557	1.9093069318734104	-0.8198434557860407	-0.7634527479992738	1.777696466525259	-0.3401635096188267
37	0.6166666666666667	-0.3158898408785019	1.8235637104386964	-0.6904124964136614	-0.33224637880356467	1.822373094423601	-0.6325578953328315	-0.33240614639427296	1.6944837505376975	-0.6011571944232098	-0.2961216136863159	1.5507345954383782	-0.511509098078309	-0.28367235936083984	1.5291750024250224	-0.5409444730114613	-0.298597292108223	1.5497596779503313	-0.5089074429524174	-0.4819780887658177	1.5393766824115518	-0.9668033884165393	-0.3052814032774183	1.8274073846485432	-0.7416545505429158	-0.29709382938735146	1.697474213975116	-0.6916262173982425	-0.24947342236511336	1.5384958399866855	-0.5240607035241428	-0.35152076211316163	1.514110300416362	-1.048180050711928	-0.34676915498643635	1.523902071143449	-1.0344293003277045	-0.4048451767261316	1.5387190570213976	-0.9912069379363051	-0.3156726901022648	1.9816997646897327	-0.7127789770125449	-0.2777975061655311	2.0374099310255516	-0.6696600784522132	-0.33532037635647693	1.9782295703119217	-0.6397087945494072	-0.3499849081952535	1.8939676075926053	-0.5959794134441968	-0.32344760197187605	1.8386363468777243	-0.5337322841885564	-0.2980599522128665	1.9863451229413294	-0.7892421116126136	-0.8123175568148929	1.8351264337612174	-0.3200800222830178	-0.7786164392010118	1.772657350972481	-0.31833600527514666
38	0.6333333333333333	-0.3107460518209949	1.8269343469151558	-0.6831945576253594	-0.3238233609932514	1.8225176681078195	-0.6241629622211279	-0.33240614639427296	1.6944837505376975	-0.6011571944232098	-0.2961216136863159	1.5507345954383782	-0.511509098078309	-0.28367235936083984	1.5291750024250224	-0.5409444730114613	-0.29725097049676685	1.5511787679984081	-0.5060721748677868	-0.4819780887658177	1.5393766824115518	-0.9668033884165393	-0.3001524817771121	1.8284412334649314	-0.734520248554238	-0.29709382938735146	1.697474213975116	-0.6916262173982425	-0.24947342236511336	1.5384958399866855	-0.5240607035241428	-0.35152076211316163	1.514110300416362	-1.048180050711928	-0.34676915498643635	1.523902071143449	-1.0344293003277045	-0.4048451767261316	1.5387190570213976	-0.9912069379363051	-0.3095839844512402	1.9804666351367837	-0.7021860996051534	-0.2731827588786844	2.0343837289030255	-0.6540702758183642	-0.3281967777173992	1.9765562853091379	-0.6258613479246372	-0.34170619887257025	1.8943600141022154	-0.57924610464759	-0.3097136313305701	1.8357750254651704	-0.5257356043230436	-0.2881073102813822	1.9837083688344013	-0.7750827618143271	-0.8537675629547826	1.832559187844852	-0.2572962122898138	-0.2821006813721577	1.8314951527756853	-0.772690094643766
39	0.65	-0.30668020508821636	1.8253936967155577	-0.6706903430965285	-0.318351608689094	1.8223740599205367	-0.6169604509913656	-0.33240614639427296	1.6944837505376975	-0.6011571944232098	-0.2961216136863159	1.5507345954383782	-0.511509098078309	-0.28367235936083984	1.5291750024250224	-0.5409444730114613	-0.29703857034020664	1.5498574825304463	-0.5060416362521711	-0.4819780887658177	1.5393766824115518	-0.9668033884165393	-0.29725014019314727	1.8292518347891058	-0.7251281523508858	-0.29709382938735146	1.697474213975116	-0.6916262173982425	-0.24947342236511336	1.5384958399866855	-0.5240607035241428	-0.35152076211316163	1.514110300416362	-1.048180050711928	-0.34676915498643635	1.523902071143449	-1.0344293003277045	-0.4048451767261316	1.5387190570213976	-0.9912069379363051	-0.3056090018525747	1.9812898599449744	-0.6899855102388548	-0.267312859622086	2.0368977994477886	-0.6448189401615001	-0.32414334192725563	1.977913761402897	-0.6139158068069689	-0.3407347159657488	1.8963759595995373	-0.5765423998829581	-0.306727608808556	1.8391145748338555	-0.5250082933664569	-0.285242116641941	1.9847562480451428	-0.765899742907725	-0.8890860493863102	1.829925713481752	-0.20603258671348001	-0.25342152689625835	1.830542995217369	-0.788542581432625
40	0.6666666666666666	-0.3031787455158057	1.8265574697686109	-0.6580110541340233	-0.31678249160514826	1.8236835834421816	-0.601919951356078	-0.33240614639427296	1.6944837505376975	-0.6011571944232098	-0.2961216136863159	1.5507345954383782	-0.511509098078309	-0.28367235936083984	1.5291750024250224	-0.5409444730114613	-0.2958038482412867	1.549270226348939	-0.5026052097615773	-0.4819780887658177	1.5393766824115518	-0.9668033884165393	-0.2936084594565997	1.8273211831551037	-0.7125322108680272	-0.29709382938735146	1.697474213975116	-0.6916262173982425	-0.24947342236511336	1.5384958399866855	-0.5240607035241428	-0.35152076211316163	1.514110300416362	-1.048180050711928	-0.34676915498643635	1.523902071143449	-1.0344293003277045	-0.4048451767261316	1.5387190570213976	-0.9912069379363051	-0.3018963654382923	1.9797718607012347	-0.6777892294326368	-0.2636004597368717	2.0360650017618998	-0.6327075136791093	-0.32124908844752775	1.9760791802755768	-0.6044138602290373	-0.3354351347595902	1.896865341239056	-0.5606069449696912	-0.3009751451140254	1.839672956079103	-0.5090456672553105	-0.2786286425724165	1.9833153599274806	-0.7530632999785936	-0.9350511095318211	1.8289660308229472	-0.14160720031494306	-0.2442972617760112	1.833823176062051	-0.7894463909617719
41	0.6833333333333333	-0.29882306592909563	1.825550217582428	-0.6454558214205078	-0.30915804748956216	1.8226555949541177	-0.5965698872923496	-0.33240614639427296	1.6944837505376975	-0.6011571944232098	-0.2961216136863159	1.5507345954383782	-0.511509098078309	-0.28367235936083984	1.5291750024250224	-0.5409444730114613	-0.2958038482412867	1.549270226348939	-0.5026052097615773	-0.4819780887658177	1.5393766824115518	-0.9668033884165393	-0.28857170076290506	1.8274177057913399	-0.6971344383244402	-0.29709382938735146	1.697474213975116	-0.6916262173982425	-0.24947342236511336	1.5384958399866855	-0.5240607035241428	-0.35152076211316163	1.514110300416362	-1.048180050711928	-0.34676915498643635	1.523902071143449	-1.0344293003277045	-0.4048451767261316	1.5387190570213976	-0.9912069379363051	-0.29697311460808573	1.976384922595448	-0.6617907122902537	-0.26332810530056183	2.0325692492196836	-0.6219546729994301	-0.3151172654415544	1.97405464977638	-0.5855439444853633	-0.3310979154442547	1.8944489844416874	-0.547642355881364	-0.2944629400261899	1.842045699153397	-0.49856919901736646	-0.2747319938828857	1.9817470798424364	-0.7402384861255221	-0.9621082655231006	1.8233675788553787	-0.10372543555826416	-0.2303568278785924	1.834538861960885	-0.7831776578764469
